<svg width="125" height="125" viewBox="0 0 125 125" fill="none" xmlns="http://www.w3.org/2000/svg">
<path d="M11.2962 55.3706H101.478V27.8151H11.2962V55.3706ZM95.8416 124.26V103.593H78.9325V89.8151H95.8416V69.1484H107.114V89.8151H124.023V103.593H107.114V124.26H95.8416ZM11.2962 110.482C8.19616 110.482 5.54332 109.134 3.33762 106.438C1.12817 103.738 0.0234375 100.493 0.0234375 96.704V14.0373C0.0234375 10.2484 1.12817 7.00604 3.33762 4.31019C5.54332 1.60974 8.19616 0.259521 11.2962 0.259521H101.478C104.578 0.259521 107.233 1.60974 109.442 4.31019C111.648 7.00604 112.751 10.2484 112.751 14.0373V55.3706H95.8416C88.0446 55.3706 81.3994 58.7278 75.9058 65.4422C70.4085 72.1611 67.6598 80.2854 67.6598 89.8151V110.482H11.2962Z" fill="#AACE9B"/>
</svg>
