<svg width="142" height="142" viewBox="0 0 142 142" fill="none" xmlns="http://www.w3.org/2000/svg">
<path d="M131.705 91.2584L141.835 81.1292L131.705 71.0001L106.418 96.2876L45.7138 35.5834L71.0013 10.2959L60.8721 0.166748L50.743 10.2959L40.6138 0.166748L25.4555 15.3251L15.3263 5.19592L5.19714 15.3251L15.3263 25.4543L0.167969 40.6126L10.2971 50.7418L0.167969 60.8709L10.2971 71.0001L35.5846 45.7126L96.2888 106.417L71.0013 131.704L81.1305 141.833L91.2596 131.704L101.389 141.833L116.547 126.675L126.676 136.804L136.805 126.675L126.676 116.546L141.835 101.388L131.705 91.2584Z" fill="#AACE9B"/>
</svg>
