<svg width="133" height="133" viewBox="0 0 133 133" fill="none" xmlns="http://www.w3.org/2000/svg">
<path d="M131.264 22.8108L109.639 1.18581C108.878 0.426497 107.848 0 106.773 0C105.699 0 104.668 0.426497 103.908 1.18581L39.0331 66.0608C38.2725 66.8205 37.8447 67.8511 37.8438 68.9261V90.5511C37.8438 91.6265 38.2709 92.6578 39.0313 93.4182C39.7917 94.1786 40.8231 94.6058 41.8984 94.6058H63.5234C64.5984 94.6049 65.6291 94.1771 66.3888 93.4164L131.264 28.5414C132.023 27.7812 132.45 26.7506 132.45 25.6761C132.45 24.6016 132.023 23.5711 131.264 22.8108ZM61.8407 86.4964H45.9531V70.6088L90.5547 26.0073L106.442 41.8949L61.8407 86.4964ZM112.18 36.1575L96.2921 20.2699L106.773 9.7885L122.661 25.6761L112.18 36.1575ZM127.047 63.5199V122.989C127.047 125.498 126.05 127.904 124.276 129.679C122.502 131.453 120.095 132.45 117.586 132.45H9.46094C6.95174 132.45 4.54531 131.453 2.77104 129.679C0.996775 127.904 0 125.498 0 122.989V14.8636C0 12.3544 0.996775 9.948 2.77104 8.17373C4.54531 6.39946 6.95174 5.40268 9.46094 5.40268H68.9297C70.0051 5.40268 71.0364 5.82987 71.7968 6.59027C72.5572 7.35067 72.9844 8.382 72.9844 9.45737C72.9844 10.5327 72.5572 11.5641 71.7968 12.3245C71.0364 13.0849 70.0051 13.5121 68.9297 13.5121H9.46094C9.10248 13.5121 8.7587 13.6545 8.50524 13.9079C8.25177 14.1614 8.10938 14.5052 8.10938 14.8636V122.989C8.10938 123.347 8.25177 123.691 8.50524 123.944C8.7587 124.198 9.10248 124.34 9.46094 124.34H117.586C117.944 124.34 118.288 124.198 118.542 123.944C118.795 123.691 118.938 123.347 118.938 122.989V63.5199C118.938 62.4445 119.365 61.4132 120.125 60.6528C120.885 59.8924 121.917 59.4652 122.992 59.4652C124.068 59.4652 125.099 59.8924 125.859 60.6528C126.62 61.4132 127.047 62.4445 127.047 63.5199Z" fill="#AACE9B"/>
</svg>
