<svg width="160" height="189" viewBox="0 0 160 189" fill="none" xmlns="http://www.w3.org/2000/svg">
<path d="M57.5787 6.19052L47.9077 15.7734L126.069 48.2794L84.094 6.1511C76.741 -1.06954 64.9219 -1.21305 57.5787 6.19052ZM19.4094 188.297L140.701 188.382C144.374 188.427 147.98 187.397 151.075 185.419C154.17 183.442 156.62 180.602 158.123 177.251C159.059 175 159.598 172.483 159.582 169.837L159.712 95.0644C159.728 87.4566 154.979 80.8111 148.646 77.9741C146.431 76.9516 143.741 76.3405 141.167 76.1836L19.7312 76.4452C16.0545 76.3512 12.4347 77.3661 9.34285 79.3578C6.251 81.3495 3.83031 84.2259 2.39583 87.6125C1.45989 89.863 1.04329 92.3294 0.922372 94.8174L0.828163 169.503C0.801166 174.459 2.74337 179.223 6.22777 182.747C9.71217 186.272 14.4535 188.268 19.4094 188.297ZM44.6538 34.8274C40.0625 32.918 34.9007 32.9106 30.304 34.807C25.7073 36.7034 22.0522 40.3481 20.1427 44.9394L14.923 57.4903L99.5315 57.65" fill="#AACE9B"/>
</svg>
