<svg width="165" height="140" viewBox="0 0 165 140" fill="none" xmlns="http://www.w3.org/2000/svg">
<path d="M126.906 25.8125H12.7188C5.71164 25.8125 0.03125 31.4649 0.03125 38.4375V126.812C0.03125 133.785 5.71164 139.437 12.7188 139.437H126.906C133.913 139.437 139.594 133.785 139.594 126.812V38.4375C139.594 31.4649 133.913 25.8125 126.906 25.8125Z" fill="#AACE9B"/>
<path d="M152.281 0.5625H31.75C30.0675 0.5625 28.454 1.22757 27.2643 2.41139C26.0746 3.59521 25.4062 5.20082 25.4062 6.875C25.4062 8.54918 26.0746 10.1548 27.2643 11.3386C28.454 12.5224 30.0675 13.1875 31.75 13.1875H152.281V107.875C152.281 109.549 152.95 111.155 154.139 112.339C155.329 113.522 156.943 114.187 158.625 114.187C160.307 114.187 161.921 113.522 163.111 112.339C164.3 111.155 164.969 109.549 164.969 107.875V13.1875C164.969 9.83914 163.632 6.62792 161.253 4.26028C158.873 1.89263 155.646 0.5625 152.281 0.5625Z" fill="#AACE9B"/>
</svg>
