<svg width="124" height="125" viewBox="0 0 124 125" fill="none" xmlns="http://www.w3.org/2000/svg">
<path d="M31 50.7C31 51.7343 30.5917 52.7263 29.865 53.4577C29.1383 54.1891 28.1527 54.6 27.125 54.6C26.0973 54.6 25.1117 54.1891 24.385 53.4577C23.6583 52.7263 23.25 51.7343 23.25 50.7C23.25 49.6657 23.6583 48.6737 24.385 47.9423C25.1117 47.2109 26.0973 46.8 27.125 46.8C28.1527 46.8 29.1383 47.2109 29.865 47.9423C30.5917 48.6737 31 49.6657 31 50.7ZM27.125 85.8C28.1527 85.8 29.1383 85.3891 29.865 84.6577C30.5917 83.9263 31 82.9343 31 81.9C31 80.8656 30.5917 79.8737 29.865 79.1423C29.1383 78.4109 28.1527 78 27.125 78C26.0973 78 25.1117 78.4109 24.385 79.1423C23.6583 79.8737 23.25 80.8656 23.25 81.9C23.25 82.9343 23.6583 83.9263 24.385 84.6577C25.1117 85.3891 26.0973 85.8 27.125 85.8ZM0 23.4C0 17.1939 2.44955 11.2421 6.80977 6.8537C11.17 2.46535 17.0837 0 23.25 0H85.25C91.4163 0 97.33 2.46535 101.69 6.8537C106.05 11.2421 108.5 17.1939 108.5 23.4V51.48C102.503 48.3929 95.861 46.7886 89.125 46.8H50.375C49.3473 46.8 48.3617 47.2109 47.635 47.9423C46.9083 48.6737 46.5 49.6657 46.5 50.7C46.5 51.7343 46.9083 52.7263 47.635 53.4577C48.3617 54.1891 49.3473 54.6 50.375 54.6H64.6117C59.0129 58.5556 54.4437 63.8109 51.2909 69.9208C48.1382 76.0307 46.4948 82.8153 46.5 89.7C46.5 96.72 48.174 103.35 51.15 109.2H23.25C17.0837 109.2 11.17 106.735 6.80977 102.346C2.44955 97.9579 0 92.0061 0 85.8V23.4ZM19.375 15.6C18.3473 15.6 17.3617 16.0109 16.635 16.7423C15.9083 17.4737 15.5 18.4657 15.5 19.5C15.5 20.5343 15.9083 21.5263 16.635 22.2577C17.3617 22.9891 18.3473 23.4 19.375 23.4H89.125C90.1527 23.4 91.1383 22.9891 91.865 22.2577C92.5917 21.5263 93 20.5343 93 19.5C93 18.4657 92.5917 17.4737 91.865 16.7423C91.1383 16.0109 90.1527 15.6 89.125 15.6H19.375ZM27.125 62.4C30.2081 62.4 33.165 61.1673 35.3451 58.9731C37.5252 56.779 38.75 53.803 38.75 50.7C38.75 47.597 37.5252 44.621 35.3451 42.4268C33.165 40.2327 30.2081 39 27.125 39C24.0419 39 21.085 40.2327 18.9049 42.4268C16.7248 44.621 15.5 47.597 15.5 50.7C15.5 53.803 16.7248 56.779 18.9049 58.9731C21.085 61.1673 24.0419 62.4 27.125 62.4ZM38.75 81.9C38.75 78.797 37.5252 75.821 35.3451 73.6268C33.165 71.4327 30.2081 70.2 27.125 70.2C24.0419 70.2 21.085 71.4327 18.9049 73.6268C16.7248 75.821 15.5 78.797 15.5 81.9C15.5 85.003 16.7248 87.979 18.9049 90.1731C21.085 92.3673 24.0419 93.6 27.125 93.6C30.2081 93.6 33.165 92.3673 35.3451 90.1731C37.5252 87.979 38.75 85.003 38.75 81.9ZM124 89.7C124 99.0091 120.326 107.937 113.785 114.519C107.245 121.102 98.3744 124.8 89.125 124.8C79.8756 124.8 71.005 121.102 64.4647 114.519C57.9243 107.937 54.25 99.0091 54.25 89.7C54.25 80.3909 57.9243 71.4631 64.4647 64.8806C71.005 58.298 79.8756 54.6 89.125 54.6C98.3744 54.6 107.245 58.298 113.785 64.8806C120.326 71.4631 124 80.3909 124 89.7ZM93 74.1C93 73.0657 92.5917 72.0737 91.865 71.3423C91.1383 70.6109 90.1527 70.2 89.125 70.2C88.0973 70.2 87.1117 70.6109 86.385 71.3423C85.6583 72.0737 85.25 73.0657 85.25 74.1V85.8H73.625C72.5973 85.8 71.6117 86.2109 70.885 86.9423C70.1583 87.6737 69.75 88.6656 69.75 89.7C69.75 90.7343 70.1583 91.7263 70.885 92.4577C71.6117 93.1891 72.5973 93.6 73.625 93.6H85.25V105.3C85.25 106.334 85.6583 107.326 86.385 108.058C87.1117 108.789 88.0973 109.2 89.125 109.2C90.1527 109.2 91.1383 108.789 91.865 108.058C92.5917 107.326 93 106.334 93 105.3V93.6H104.625C105.653 93.6 106.638 93.1891 107.365 92.4577C108.092 91.7263 108.5 90.7343 108.5 89.7C108.5 88.6656 108.092 87.6737 107.365 86.9423C106.638 86.2109 105.653 85.8 104.625 85.8H93V74.1Z" fill="#AACE9B"/>
</svg>
