<svg width="38" height="38" viewBox="0 0 38 38" fill="none" xmlns="http://www.w3.org/2000/svg">
<path d="M19 10.3751C17.2941 10.3751 15.6266 10.881 14.2082 11.8287C12.7898 12.7764 11.6843 14.1235 11.0315 15.6995C10.3787 17.2755 10.2079 19.0097 10.5407 20.6828C10.8735 22.3559 11.695 23.8927 12.9012 25.0989C14.1074 26.3051 15.6443 27.1266 17.3173 27.4594C18.9904 27.7922 20.7246 27.6214 22.3006 26.9686C23.8767 26.3158 25.2237 25.2103 26.1714 23.7919C27.1192 22.3735 27.625 20.706 27.625 19.0001C27.6226 16.7134 26.7132 14.5209 25.0962 12.904C23.4792 11.287 21.2868 10.3775 19 10.3751ZM19 24.7501C17.8628 24.7501 16.7511 24.4129 15.8055 23.7811C14.8599 23.1493 14.1229 22.2512 13.6877 21.2006C13.2525 20.1499 13.1386 18.9937 13.3605 17.8784C13.5823 16.763 14.13 15.7384 14.9341 14.9343C15.7383 14.1301 16.7628 13.5825 17.8782 13.3606C18.9936 13.1387 20.1498 13.2526 21.2004 13.6878C22.2511 14.123 23.1491 14.86 23.781 15.8056C24.4128 16.7512 24.75 17.8629 24.75 19.0001C24.75 20.5251 24.1442 21.9876 23.0659 23.066C21.9875 24.1443 20.525 24.7501 19 24.7501ZM27.625 0.312622H10.375C7.70713 0.315476 5.14936 1.37655 3.26289 3.26301C1.37642 5.14948 0.315354 7.70726 0.3125 10.3751V27.6251C0.315354 30.293 1.37642 32.8508 3.26289 34.7372C5.14936 36.6237 7.70713 37.6848 10.375 37.6876H27.625C30.2929 37.6848 32.8506 36.6237 34.7371 34.7372C36.6236 32.8508 37.6846 30.293 37.6875 27.6251V10.3751C37.6846 7.70726 36.6236 5.14948 34.7371 3.26301C32.8506 1.37655 30.2929 0.315476 27.625 0.312622ZM34.8125 27.6251C34.8125 29.5314 34.0552 31.3595 32.7073 32.7075C31.3594 34.0554 29.5312 34.8126 27.625 34.8126H10.375C8.46876 34.8126 6.64059 34.0554 5.29267 32.7075C3.94475 31.3595 3.1875 29.5314 3.1875 27.6251V10.3751C3.1875 8.46888 3.94475 6.64071 5.29267 5.29279C6.64059 3.94487 8.46876 3.18762 10.375 3.18762H27.625C29.5312 3.18762 31.3594 3.94487 32.7073 5.29279C34.0552 6.64071 34.8125 8.46888 34.8125 10.3751V27.6251ZM30.5 9.65637C30.5 10.0828 30.3735 10.4997 30.1366 10.8543C29.8997 11.2089 29.5629 11.4853 29.1689 11.6485C28.7749 11.8117 28.3414 11.8544 27.9231 11.7712C27.5048 11.688 27.1206 11.4826 26.8191 11.1811C26.5175 10.8795 26.3121 10.4953 26.2289 10.077C26.1457 9.65876 26.1884 9.22521 26.3516 8.83121C26.5148 8.43721 26.7912 8.10045 27.1458 7.86352C27.5004 7.62658 27.9173 7.50012 28.3438 7.50012C28.9156 7.50012 29.4641 7.7273 29.8684 8.13167C30.2728 8.53605 30.5 9.0845 30.5 9.65637Z" fill="#686977"/>
</svg>
