<svg width="42" height="42" viewBox="0 0 42 42" fill="none" xmlns="http://www.w3.org/2000/svg">
<path d="M36.75 0.750122C37.9435 0.750122 39.0881 1.22423 39.932 2.06814C40.7759 2.91206 41.25 4.05665 41.25 5.25012V36.7501C41.25 37.9436 40.7759 39.0882 39.932 39.9321C39.0881 40.776 37.9435 41.2501 36.75 41.2501H5.25C4.05653 41.2501 2.91193 40.776 2.06802 39.9321C1.22411 39.0882 0.75 37.9436 0.75 36.7501V5.25012C0.75 4.05665 1.22411 2.91206 2.06802 2.06814C2.91193 1.22423 4.05653 0.750122 5.25 0.750122H36.75ZM35.625 35.6251V23.7001C35.625 21.7548 34.8522 19.8891 33.4766 18.5135C32.101 17.1379 30.2354 16.3651 28.29 16.3651C26.3775 16.3651 24.15 17.5351 23.07 19.2901V16.7926H16.7925V35.6251H23.07V24.5326C23.07 22.8001 24.465 21.3826 26.1975 21.3826C27.0329 21.3826 27.8341 21.7145 28.4249 22.3052C29.0156 22.896 29.3475 23.6972 29.3475 24.5326V35.6251H35.625ZM9.48 13.2601C10.4825 13.2601 11.444 12.8619 12.1529 12.153C12.8618 11.4441 13.26 10.4826 13.26 9.48012C13.26 7.38762 11.5725 5.67762 9.48 5.67762C8.47151 5.67762 7.50433 6.07824 6.79123 6.79135C6.07812 7.50446 5.6775 8.47164 5.6775 9.48012C5.6775 11.5726 7.3875 13.2601 9.48 13.2601ZM12.6075 35.6251V16.7926H6.375V35.6251H12.6075Z" fill="#686977"/>
</svg>
