<svg width="40" height="41" viewBox="0 0 40 41" fill="none" xmlns="http://www.w3.org/2000/svg">
<path fill-rule="evenodd" clip-rule="evenodd" d="M20 20.5C21.1302 20.5 22.235 20.8006 23.1747 21.3637C24.1144 21.9269 24.8468 22.7273 25.2793 23.6637C25.7118 24.6002 25.825 25.6307 25.6045 26.6248C25.384 27.619 24.8398 28.5322 24.0406 29.2489C23.2415 29.9657 22.2233 30.4538 21.1148 30.6515C20.0063 30.8493 18.8574 30.7478 17.8132 30.3599C16.7691 29.972 15.8766 29.3151 15.2487 28.4723C14.6209 27.6295 14.2857 26.6386 14.2857 25.625C14.2902 24.267 14.8937 22.9658 15.9644 22.0056C17.035 21.0453 18.4859 20.5041 20 20.5ZM20 5.125C18.4859 5.12906 17.035 5.67031 15.9644 6.63056C14.8937 7.5908 14.2902 8.89201 14.2857 10.25H25.7143C25.7098 8.89201 25.1063 7.5908 24.0356 6.63056C22.965 5.67031 21.5141 5.12906 20 5.125ZM34.2857 41H5.71429C4.20015 40.9959 2.74933 40.4547 1.67867 39.4944C0.608013 38.5342 0.00452208 37.233 0 35.875L0 15.375C0.00452208 14.017 0.608013 12.7158 1.67867 11.7556C2.74933 10.7953 4.20015 10.2541 5.71429 10.25H8.57143C8.57143 7.53153 9.77551 4.9244 11.9188 3.00216C14.0621 1.07991 16.969 0 20 0C23.031 0 25.9379 1.07991 28.0812 3.00216C30.2245 4.9244 31.4286 7.53153 31.4286 10.25H34.2857C35.7998 10.2541 37.2507 10.7953 38.3213 11.7556C39.392 12.7158 39.9955 14.017 40 15.375V35.875C39.9955 37.233 39.392 38.5342 38.3213 39.4944C37.2507 40.4547 35.7998 40.9959 34.2857 41Z" fill="#AACE9B"/>
</svg>
