<svg width="42" height="34" viewBox="0 0 42 34" fill="none" xmlns="http://www.w3.org/2000/svg">
<path fill-rule="evenodd" clip-rule="evenodd" d="M6.15163 0.5H35.8484C38.9001 0.5 41.3921 2.97706 41.4163 6.02328C41.4169 6.04932 41.417 6.07535 41.4165 6.10136V28.3407C41.4165 31.4074 38.9151 33.9088 35.8484 33.9088H6.15163C3.08492 33.9088 0.583496 31.4074 0.583496 28.3407V6.06814C0.583496 3.00142 3.08492 0.5 6.15163 0.5ZM37.5066 5.24041C37.1997 4.63335 36.5684 4.21209 35.8483 4.21209H6.15155C5.43151 4.21209 4.80033 4.63323 4.49336 5.24015L21.0002 16.7949L37.5066 5.24041ZM4.2955 9.63284L19.9358 20.581C20.5749 21.0284 21.4255 21.0284 22.0645 20.581L37.7043 9.63318V28.3407C37.7043 29.3573 36.8649 30.1967 35.8483 30.1967H6.15155C5.13496 30.1967 4.2955 29.3573 4.2955 28.3407V9.63284Z" fill="#373867"/>
<mask id="mask0_3955_4918" style="mask-type:luminance" maskUnits="userSpaceOnUse" x="0" y="0" width="42" height="34">
<path fill-rule="evenodd" clip-rule="evenodd" d="M6.15163 0.5H35.8484C38.9001 0.5 41.3921 2.97706 41.4163 6.02328C41.4169 6.04932 41.417 6.07535 41.4165 6.10136V28.3407C41.4165 31.4074 38.9151 33.9088 35.8484 33.9088H6.15163C3.08492 33.9088 0.583496 31.4074 0.583496 28.3407V6.06814C0.583496 3.00142 3.08492 0.5 6.15163 0.5ZM37.5066 5.24041C37.1997 4.63335 36.5684 4.21209 35.8483 4.21209H6.15155C5.43151 4.21209 4.80033 4.63323 4.49336 5.24015L21.0002 16.7949L37.5066 5.24041ZM4.2955 9.63284L19.9358 20.581C20.5749 21.0284 21.4255 21.0284 22.0645 20.581L37.7043 9.63318V28.3407C37.7043 29.3573 36.8649 30.1967 35.8483 30.1967H6.15155C5.13496 30.1967 4.2955 29.3573 4.2955 28.3407V9.63284Z" fill="white"/>
</mask>
<g mask="url(#mask0_3955_4918)">
<rect x="-1.27246" y="-5.06812" width="44.5451" height="44.5451" fill="#AACE9B"/>
</g>
</svg>
