<svg width="14" height="12" viewBox="0 0 14 12" fill="none" xmlns="http://www.w3.org/2000/svg">
<path fill-rule="evenodd" clip-rule="evenodd" d="M1.90908 0.272766H12.0908C13.1372 0.272766 13.9916 1.12217 13.9998 2.16669C14 2.17548 14.0001 2.18427 13.9999 2.19305V9.81815C13.9999 10.8696 13.1423 11.7272 12.0908 11.7272H1.90908C0.85763 11.7272 0 10.8696 0 9.81815V2.18184C0 1.1304 0.85763 0.272766 1.90908 0.272766ZM12.6593 1.89808C12.5541 1.68993 12.3376 1.54548 12.0907 1.54548H1.90899C1.66213 1.54548 1.44574 1.68986 1.34048 1.89793L7 5.85959L12.6593 1.89808ZM1.27263 3.40399L6.63507 7.15769C6.85418 7.31107 7.14582 7.31107 7.36493 7.15769L12.7271 3.40418V9.81815C12.7271 10.1667 12.4393 10.4545 12.0907 10.4545H1.90899C1.56045 10.4545 1.27263 10.1667 1.27263 9.81815V3.40399Z" fill="#F13312"/>
<mask id="mask0_2135_11595" style="mask-type:luminance" maskUnits="userSpaceOnUse" x="0" y="0" width="14" height="12">
<path fill-rule="evenodd" clip-rule="evenodd" d="M1.90908 0.272766H12.0908C13.1372 0.272766 13.9916 1.12217 13.9998 2.16669C14 2.17548 14.0001 2.18427 13.9999 2.19305V9.81815C13.9999 10.8696 13.1423 11.7272 12.0908 11.7272H1.90908C0.85763 11.7272 0 10.8696 0 9.81815V2.18184C0 1.1304 0.85763 0.272766 1.90908 0.272766ZM12.6593 1.89808C12.5541 1.68993 12.3376 1.54548 12.0907 1.54548H1.90899C1.66213 1.54548 1.44574 1.68986 1.34048 1.89793L7 5.85959L12.6593 1.89808ZM1.27263 3.40399L6.63507 7.15769C6.85418 7.31107 7.14582 7.31107 7.36493 7.15769L12.7271 3.40418V9.81815C12.7271 10.1667 12.4393 10.4545 12.0907 10.4545H1.90899C1.56045 10.4545 1.27263 10.1667 1.27263 9.81815V3.40399Z" fill="white"/>
</mask>
<g mask="url(#mask0_2135_11595)">
<path d="M-0.636719 -1.63629H14.6359V13.6363H-0.636719V-1.63629Z" fill="#AACE9B"/>
</g>
</svg>
