<svg width="170" height="144" viewBox="0 0 170 144" fill="none" xmlns="http://www.w3.org/2000/svg">
<g clip-path="url(#clip0_1704_5247)">
<path d="M130.769 26.1538H13.0769C9.60871 26.1538 6.28254 27.5316 3.83014 29.984C1.37774 32.4364 0 35.7626 0 39.2308V130.769C0 134.237 1.37774 137.564 3.83014 140.016C6.28254 142.468 9.60871 143.846 13.0769 143.846H130.769C134.237 143.846 137.564 142.468 140.016 140.016C142.468 137.564 143.846 134.237 143.846 130.769V39.2308C143.846 35.7626 142.468 32.4364 140.016 29.984C137.564 27.5316 134.237 26.1538 130.769 26.1538ZM130.769 130.769H13.0769V39.2308H130.769V130.769ZM170 13.0769V111.154C170 112.888 169.311 114.551 168.085 115.777C166.859 117.003 165.196 117.692 163.462 117.692C161.727 117.692 160.064 117.003 158.838 115.777C157.612 114.551 156.923 112.888 156.923 111.154V13.0769H32.6923C30.9582 13.0769 29.2951 12.3881 28.0689 11.1619C26.8427 9.93565 26.1538 8.27257 26.1538 6.53846C26.1538 4.80435 26.8427 3.14127 28.0689 1.91507C29.2951 0.688873 30.9582 0 32.6923 0H156.923C160.391 0 163.717 1.37774 166.17 3.83014C168.622 6.28254 170 9.60871 170 13.0769Z" fill="#AACE9B"/>
</g>
<defs>
<clipPath id="clip0_1704_5247">
<rect width="170" height="143.846" fill="white"/>
</clipPath>
</defs>
</svg>
