<svg width="41" height="34" viewBox="0 0 41 34" fill="none" xmlns="http://www.w3.org/2000/svg">
<path d="M40.1117 4.50008C38.668 5.17091 37.1117 5.61175 35.4992 5.82258C37.1492 4.80675 38.4242 3.19675 39.0242 1.26091C37.468 2.21925 35.743 2.89008 33.9242 3.27341C32.443 1.62508 30.3617 0.666748 27.9992 0.666748C23.593 0.666748 19.993 4.34675 19.993 8.88925C19.993 9.54091 20.068 10.1734 20.1992 10.7676C13.5242 10.4226 7.58047 7.14508 3.62422 2.18091C2.93047 3.38841 2.53672 4.80675 2.53672 6.30175C2.53672 9.15758 3.94297 11.6876 6.11797 13.1251C4.78672 13.1251 3.54922 12.7417 2.46172 12.1667V12.2242C2.46172 16.2109 5.23672 19.5459 8.91172 20.2934C7.73183 20.6235 6.49315 20.6694 5.29297 20.4276C5.80223 22.0615 6.7996 23.4912 8.14487 24.5157C9.49015 25.5402 11.1157 26.108 12.793 26.1392C9.94977 28.4401 6.42546 29.6838 2.79922 29.6659C2.16172 29.6659 1.52422 29.6276 0.886719 29.5509C4.44922 31.8892 8.68672 33.2501 13.2242 33.2501C27.9992 33.2501 36.118 20.7151 36.118 9.84758C36.118 9.48341 36.118 9.13841 36.0992 8.77425C37.6742 7.62425 39.0242 6.16758 40.1117 4.50008Z" fill="#686977"/>
</svg>
