<svg width="14" height="16" viewBox="0 0 14 16" fill="none" xmlns="http://www.w3.org/2000/svg">
<path fill-rule="evenodd" clip-rule="evenodd" d="M0.270242 5.04745L6.57024 0.147453C6.82302 -0.0491511 7.17698 -0.0491511 7.42976 0.147453L13.7298 5.04745C13.9003 5.18007 14 5.38399 14 5.6V13.3C14 14.4598 13.0598 15.4 11.9 15.4H9.1H4.9H2.1C0.940202 15.4 0 14.4598 0 13.3V5.6C0 5.38399 0.099731 5.18007 0.270242 5.04745ZM5.6 14H8.4V8.4H5.6V14ZM9.8 14V7.7C9.8 7.3134 9.4866 7 9.1 7H4.9C4.5134 7 4.2 7.3134 4.2 7.7V14H2.1C1.7134 14 1.4 13.6866 1.4 13.3V5.94235L7 1.58679L12.6 5.94235V13.3C12.6 13.6866 12.2866 14 11.9 14H9.8Z" fill="#AACE9B"/>
</svg>
