<svg width="36" height="36" viewBox="0 0 36 36" fill="none" xmlns="http://www.w3.org/2000/svg">
<path d="M18 0.0834961C15.7019 0.0834961 13.4262 0.546924 11.303 1.44732C9.17984 2.34772 7.25066 3.66745 5.62563 5.33117C2.34374 8.69119 0.5 13.2484 0.5 18.0002C0.5 25.9193 5.5225 32.6381 12.47 35.021C13.345 35.1643 13.625 34.6089 13.625 34.1252V31.0972C8.7775 32.1722 7.745 28.6964 7.745 28.6964C6.94 26.6181 5.8025 26.0627 5.8025 26.0627C4.21 24.9518 5.925 24.9877 5.925 24.9877C7.675 25.1131 8.6025 26.8331 8.6025 26.8331C10.125 29.5564 12.6975 28.7502 13.695 28.3202C13.8525 27.1556 14.3075 26.3672 14.7975 25.9193C10.9125 25.4714 6.835 23.9306 6.835 17.1043C6.835 15.1156 7.5 13.521 8.6375 12.2489C8.4625 11.801 7.85 9.93766 8.8125 7.51891C8.8125 7.51891 10.2825 7.03516 13.625 9.34641C15.0075 8.95225 16.5125 8.75516 18 8.75516C19.4875 8.75516 20.9925 8.95225 22.375 9.34641C25.7175 7.03516 27.1875 7.51891 27.1875 7.51891C28.15 9.93766 27.5375 11.801 27.3625 12.2489C28.5 13.521 29.165 15.1156 29.165 17.1043C29.165 23.9485 25.07 25.4535 21.1675 25.9014C21.7975 26.4568 22.375 27.5497 22.375 29.216V34.1252C22.375 34.6089 22.655 35.1822 23.5475 35.021C30.495 32.6202 35.5 25.9193 35.5 18.0002C35.5 15.6473 35.0474 13.3175 34.1679 11.1438C33.2884 8.97 31.9994 6.99488 30.3744 5.33117C28.7493 3.66745 26.8202 2.34772 24.697 1.44732C22.5738 0.546924 20.2981 0.0834961 18 0.0834961Z" fill="#686977"/>
</svg>
