<svg width="28" height="26" viewBox="0 0 28 26" fill="none" xmlns="http://www.w3.org/2000/svg">
<path fill-rule="evenodd" clip-rule="evenodd" d="M26.25 0.75H1.75C0.783502 0.75 0 1.5335 0 2.5C0 3.4665 0.783502 4.25 1.75 4.25H26.25C27.2165 4.25 28 3.4665 28 2.5C28 1.5335 27.2165 0.75 26.25 0.75ZM26.25 11.25H1.75C0.783502 11.25 0 12.0335 0 13C0 13.9665 0.783502 14.75 1.75 14.75H26.25C27.2165 14.75 28 13.9665 28 13C28 12.0335 27.2165 11.25 26.25 11.25ZM1.75 21.75H26.25C27.2165 21.75 28 22.5335 28 23.5C28 24.4665 27.2165 25.25 26.25 25.25H1.75C0.783502 25.25 0 24.4665 0 23.5C0 22.5335 0.783502 21.75 1.75 21.75Z" fill="#373867"/>
</svg>
